<?xml version="1.0" encoding="UTF-8"?>
<svg id="Calque_2" data-name="Calque 2" xmlns="http://www.w3.org/2000/svg" viewBox="0 0 277.23 185.4">
  <defs>
    <style>
      .cls-1 {
        fill: none;
      }

      .cls-1, .cls-2, .cls-3 {
        stroke-width: 0px;
      }

      .cls-2 {
        fill: #4d4d4d;
      }

      .cls-3 {
        fill: #fff;
      }
    </style>
  </defs>
  <g id="Calque_1-2" data-name="Calque 1">
    <g>
      <g>
        <path class="cls-2" d="M168.33,56.37c2.28-2.82,4.42-5.76,6.44-8.78,1.07.23,2.24-.01,3.13-.67.66-.49,1.17-1.14,1.43-1.91,5.05-2.99,9.94-6.28,15.31-8.68,2.58-1.16,5.3-2.13,8.08-2.64,2.58-.47,5.47-.46,7.59,1.3.47.39,1.47.2,1.38-.57-.25-2.18-1.17-4.2-2.52-5.87.43-.06.86-.19,1.28-.39.42-.2.45-.74.29-1.11-1.52-3.42-4-6.35-7.08-8.47.05-.17.13-.34.17-.52.46-1.9.42-4.23-.97-5.76-.6-.66-1.43-1.05-2.33-1.03-1.22.03-2.25.96-3.46.9-.96-.05-1.84-.66-2.72-1.08.26-.29.34-.72-.03-1.06-2.11-1.93-4.22-3.88-6.34-5.8-1.82-1.66-3.74-3.1-6.25-3.42-4.25-.54-7.91,1.74-10.65,4.76-.02-.03-.03-.05-.06-.08-1.88-1.62-4.36-2.53-6.86-2.31-2.42.22-4.7,1.37-6.28,3.23-.31.37-.29.77,0,1.14,1.05,1.35,2.1,2.7,3.15,4.05-.77.88-1.65,1.51-2.85,1.37-.72-.08-1.03.92-.57,1.38,7.65,7.63,12.61,17.67,14.09,28.37.02.13.06.24.12.32-.26,1.46.36,2.92,1.5,3.85-7.59,11.31-17.14,21.3-28.14,29.33-3.21,2.34-6.54,4.52-9.96,6.53-.9.53-.08,1.92.82,1.4,3.71-2.17,7.28-4.57,10.73-7.13.29.19,20.75-13.54,32.25-16.7.13.27.28.53.47.75.44.53,1.05.85,1.72.97.06.06.12.12.2.16,6.58,3.31,11.92,8.68,15.18,15.28.31.62,1.32.46,1.48-.19.15-.64.63-.99,1.18-1.23.6.91,1.2,1.82,1.81,2.73.18.27.57.51.91.37,1.53-.61,2.85-1.72,3.58-3.21.81-1.65.91-3.6.23-5.31,2.51-1.14,4.74-3.03,5.33-5.85.36-1.7-.08-3.26-.75-4.82-.81-1.9-1.66-3.78-2.49-5.66-.14-.32-.4-.43-.66-.41-.1-.7-.26-1.41.14-2.03.4-.63,1.01-1.09,1.2-1.85.36-1.45-.82-2.71-2.05-3.25-.68-.3-1.41-.43-2.14-.47-.73-2.44-2.08-4.68-3.95-6.41-.32-.29-.83-.32-1.14,0-.13.14-.25.28-.35.42-.76-1.09-1.75-2.03-3-2.62-.57-.27-1.45.19-1.19.91,1.38,3.73-2.32,7.75-4.69,10.22-2.6,2.7-5.57,5-8.42,7.43-1.36.03-2.56,1.12-2.81,2.44-7.31,1.99-14.31,4.97-20.78,8.87,3.67-3.5,7.13-7.23,10.33-11.18ZM176.85,45.69c-.37.23-.52.27-.94.37-.04,0-.05.01-.06.02,0,0-.02,0-.05,0-.11,0-.22.01-.32,0,0,0,0,0-.01,0-.16-.43-.73-.68-1.17-.45-.13-.1-.25-.22-.35-.34-.01-.01-.08-.1-.09-.12-.05-.07-.09-.14-.14-.21-.05-.08-.09-.16-.14-.25,0,0-.04-.1-.06-.13-.06-.17-.1-.34-.15-.51,0-.03-.01-.04-.01-.05,1.39.33,2.78.67,4.18,1-.18.26-.41.49-.69.66ZM195.32,34.29c-4.55,1.88-8.75,4.43-12.94,6.99,2.98-2.57,6.01-5.1,9.09-7.55.22-.17-.04-.53-.26-.35-.99.79-1.98,1.59-2.97,2.39-2.73,2.23-5.4,4.52-8.04,6.84-.56.34-1.12.67-1.67,1-.32-.08-.63-.15-.95-.23.33-.29.66-.6.97-.87.67-.56,1.34-1.11,2-1.67,2.36-1.97,4.73-3.93,7.09-5.9,2.42-2.01,4.83-4.02,7.25-6.03,1.24-1.03,2.5-2.06,3.69-3.16.08.02.16.03.26.02,4.15-.53,8.37,1.85,10.25,5.5-1.27-1.02-2.81-1.67-4.44-1.82-.28-.03-.35.4-.07.43,1.9.19,3.67,1.08,4.99,2.46.04.12.08.25.12.37-4.41-2.12-10.13-.19-14.38,1.57ZM208.88,26.97c-.26.03-.52.02-.77-.03-.17-.03-.31,0-.44.04-2.04-1.77-4.65-2.87-7.4-2.89.09-.1.19-.19.27-.28.98-1.1,1.86-2.32,2.51-3.65,2.47,1.77,4.45,4.11,5.83,6.82ZM197.38,13.78c1.01-.05,1.83-.65,2.8-.84.52-.1.93,0,1.25.22-.24.58-.52,1.15-.84,1.69-1.46,2.45-3.7,4.42-6.32,5.55-.26.11-.1.52.16.41.77-.33,1.5-.73,2.2-1.19,2.26-1.5,4.04-3.67,5.12-6.15.74.88.82,2.58.66,3.58-.31,1.98-1.42,3.76-2.7,5.26-2.94,3.45-6.79,6.17-10.26,9.06-4.42,3.68-8.84,7.35-13.26,11.03.02-.16.04-.33.06-.49.45-.86.89-1.73,1.36-2.59,2.42-4.47,5.07-8.81,7.94-13.01.16-.23-.18-.51-.34-.28-.82,1.2-1.62,2.41-2.4,3.63-2.31,3.61-4.43,7.33-6.43,11.12.31-2.76.62-5.51.93-8.27.38-3.33.45-6.94,1.82-10.05,1.84-3.85,5.72-6.77,9.28-8.96.9-.55,1.87-1.05,2.92-1.24,1.25-.22,2.25.22,3.34.76.85.42,1.73.81,2.7.76ZM182.23,2.52c2.21.51,3.82,2.12,5.44,3.6.04.03.07.07.11.1-1.65.85-2.26,2.9-2.68,4.64-.07.27.37.34.43.07.39-1.6.96-3.67,2.6-4.38,1.48,1.36,2.96,2.71,4.45,4.07-.78-.07-1.56.01-2.32.23-2.4.71-4.55,2.4-6.51,3.98-1.28-2.07-3.22-3.52-5.32-4.69-2.07-1.15-4.31-2.31-6.61-3.01,2.54-3.03,6.3-5.57,10.41-4.62ZM159.53,7.06c1.16-1.14,2.6-1.85,4.12-2.12.44.58.79,1.23.99,1.94.03.11.18.16.28.12.12-.05.16-.17.12-.28-.18-.68-.52-1.3-.92-1.87,2.01-.22,4.1.34,5.76,1.77.03.03.06.03.09.05-2.09-.31-4.32-.03-6.03,1.29-.71.54-1.3,1.43-1.91,2.31-.83-1.07-1.67-2.15-2.5-3.22ZM159.84,14.4c1.07-.38,1.93-1.23,2.66-2.16,1.58,2.16,2.97,4.45,4.13,6.87.12.25.53.1.41-.16-1.19-2.49-2.62-4.85-4.26-7.07.18-.24.35-.48.52-.72.71-1.03,1.45-1.99,2.62-2.5,1.21-.53,2.62-.59,3.92-.37.38.07.76.18,1.14.29,1,2.41,1.78,4.92,2.3,7.48.06.27.49.23.43-.05-.51-2.5-1.26-4.94-2.22-7.3,1.89.59,3.7,1.56,5.43,2.47,2.12,1.11,4.17,2.43,5.45,4.51.05.07.1.12.16.17-1.94,1.63-3.7,3.48-4.8,5.79-1.39,3.17-1.57,6.68-1.95,10.08-.41,3.64-.82,7.29-1.23,10.93-.31-.07-.62-.15-.93-.22-.18-4.39-.65-8.77-1.4-13.1-.05-.28-.48-.23-.43.05.71,4.06,1.15,8.17,1.36,12.28-1.54-10.19-6.25-19.76-13.29-27.26ZM197.31,75.45c-2.95-5.42-7.29-10.01-12.55-13.23,1.83.8,3.64,1.65,5.39,2.6.17.09.3-.18.13-.27-2.56-1.4-5.22-2.62-7.94-3.68.01-.15.03-.29.04-.44,2.28.5,4.57.99,6.85,1.49,2.33.51,4.72,1.2,7.13,1.01,1.68-.21,3.33-.84,4.87-1.7,1.02,1.28,1.38,2.91,1.62,4.49.18,1.16.37,2.41.37,3.63-1.25-1.06-2.57-2.02-3.99-2.84-.17-.1-.29.17-.13.27,1.46.85,2.83,1.85,4.12,2.96-.02.51-.08,1.01-.21,1.49-.19.72-.54,1.41-1.08,1.93-.72.69-1.7.82-2.61,1.12-1.04-1.46-2.18-2.84-3.46-4.09-.14-.13-.33.1-.19.23,1.25,1.22,2.35,2.56,3.37,3.97-.66.24-1.26.59-1.73,1.06ZM204.2,74.95c-.25-.3-.53-.58-.85-.8-.06-.04-.14-.04-.19,0,.61-.63,1.05-1.39,1.31-2.23.22,1.01.15,2.06-.27,3.02ZM202.02,77.34c-.4-.61-.8-1.21-1.2-1.82.67-.21,1.32-.46,1.89-.9.16-.13.29-.29.43-.43-.04.06-.04.15.02.2.35.24.64.54.9.88-.46.87-1.17,1.6-2.04,2.07ZM208.34,59.42c-.85.71-2.18.63-3.22.54-.19-.02-.24.28-.05.29,1.13.1,2.47.14,3.39-.56,0,0,0,.01,0,.02.61,1.38,1.33,2.82,1.11,4.38-.37,2.57-2.48,4.24-4.74,5.2,0-1.5-.25-3.02-.5-4.47-.28-1.61-.79-3.11-1.75-4.43.98-.65,1.91-1.38,2.74-2.13.67-.61,1.22-1.33,1.56-2.14.48,1.1.97,2.2,1.45,3.3ZM206.69,48.85s.03.06.05.09c-1.74.2-3.43.86-4.81,1.93-.45.35-.87.74-1.25,1.16-.13.14.1.34.23.19,1.31-1.45,3.08-2.47,4.99-2.88.33-.07.66-.09.99-.12.19.66-.51,1.15-.9,1.73-1.04,1.52.13,3.19-.62,4.74-.73,1.5-2.52,2.5-3.86,3.39-1.57,1.04-3.25,1.99-5.15,2.23-2.39.19-4.77-.53-7.08-1.04-1.61-.35-3.22-.7-4.82-1.05,2.66-.44,5.31-.96,7.93-1.61.96-.24,1.92-.49,2.88-.76.19-.05.08-.33-.11-.28-3.35.93-6.74,1.7-10.17,2.29-.42.07-.85.13-1.27.2-.12-.03-.23-.05-.35-.08,3.4-2.09,6.81-4.18,10.21-6.26,1.76-1.08,3.5-2.22,5.3-3.21,1.63-.9,3.47-1.75,5.37-1.64.82.05,1.91.27,2.44.97ZM202.65,46.37c-.38.06-.76.14-1.13.24-.45.13-.89.28-1.32.46.39-1.64.24-3.37-.35-4.94.05-.1.08-.22.1-.33,1.21,1.32,2.13,2.87,2.69,4.57ZM192.02,49.01c2.07-2.32,4.64-5.54,4.6-8.85.08.07.16.14.24.22.34.98.41,2.04.17,3.06-.04.19.25.24.3.05.2-.87.17-1.77-.04-2.63,1.55,1.92,2.08,4.67.97,6.98-.04.07-.04.14-.06.22-.56.31-1.12.63-1.67.96-1.83,1.12-3.66,2.24-5.48,3.36-2,1.23-4,2.45-6,3.68-.8.49-1.61.97-2.4,1.47,0-.03,0-.05,0-.08.68-.58,1.37-1.16,2.06-1.74,1.65-.97,3.29-1.95,4.91-2.97.74-.46,1.47-.93,2.2-1.4.16-.1-.01-.35-.17-.24-1.83,1.18-3.68,2.31-5.54,3.43,2.07-1.74,4.1-3.51,5.9-5.52ZM180.61,58.39s0,0,0,0c0,0,0,0,.02-.01.08-.09.17-.17.25-.25,0,0,0,0,0,0,0,0,0,0,.02,0,.03-.02.05-.03.08-.05-.06.68-.13,1.36-.19,2.04-.05-.05-.11-.11-.16-.16-.01-.02-.02-.03-.04-.05-.03-.05-.06-.1-.09-.15,0,0-.02-.03-.03-.06.18-.29.15-.68-.06-.95,0,0,0-.01,0-.02.02-.05.05-.11.07-.14.03-.06.07-.12.11-.17Z"/>
        <path class="cls-2" d="M137.83,66.01c1.19-.29,2.23-1.13,2.77-2.26.38-.78.52-1.63.4-2.49,3.38-5.3,6.46-10.84,10.41-15.75,1.93-2.4,4.05-4.71,6.47-6.62,2.41-1.9,5.39-3.5,8.54-2.78.65.15,1.32-.57.91-1.19-1.32-2.01-3.24-3.52-5.4-4.46.38-.25.72-.56,1.01-.93.25-.32.37-.84,0-1.14-3.24-2.63-7.1-4.29-11.22-4.86-.06-.34-.13-.68-.22-1.02-.58-2.13-2.03-4.55-4.4-4.91-2.8-.43-3.49,2.94-6.01,3.16-.75.07-1.49.04-2.23.08.14-.4.01-.9-.51-1.04-3.02-.84-6.03-1.7-9.06-2.53-2.57-.71-5.17-1.18-7.74-.23-4.37,1.61-6.85,5.64-8,9.94-.06-.03-.12-.07-.19-.09-2.7-.67-5.65-.24-7.98,1.3-2.13,1.41-3.67,3.62-4.26,6.1-.08.32.04.76.37.91,1.69.8,3.38,1.6,5.07,2.4.08.04.16.05.24.06-.3,1.29-.81,2.41-2.03,2.84-.75.27-.78,1.3,0,1.56,11.16,3.63,20.99,10.94,27.68,20.59.09.14.21.22.34.27.4,1.62,1.82,2.81,3.43,3.12-.72,5.88-1.85,11.7-3.37,17.43-.06-.07-.12-.14-.21-.2-3.42-2.14-6.72-4.47-9.9-6.95,0-.17-.08-.35-.25-.5-1.87-1.62-3.83-3.12-5.84-4.56-5.48-4.89-10.51-10.27-14.97-16.1-2.17-2.83-4.18-5.77-6.08-8.79.47-.34.88-.8,1.17-1.35.41-.77.55-1.62.42-2.47.07-.09.12-.19.14-.33,1.78-10.66,7.03-20.54,14.9-27.95.48-.46.14-1.44-.57-1.38-1.2.11-2.06-.55-2.8-1.45,0,0,.01,0,.02-.02,1.09-1.32,2.17-2.64,3.26-3.96.3-.37.3-.77,0-1.14-1.53-1.9-3.78-3.11-6.19-3.39-2.5-.29-4.98.55-6.91,2.13-.02.02-.03.04-.05.06-2.67-3.11-6.32-5.53-10.59-5.05-2.44.27-4.34,1.58-6.15,3.14-2.22,1.9-4.42,3.82-6.63,5.73-.38.33-.3.76-.04,1.05-.3.11-.59.24-.89.38-.59.27-1.22.61-1.89.62-.57,0-1.09-.25-1.61-.47-.99-.42-2-.74-3.05-.32-1.88.74-2.51,3.03-2.45,4.87.02.73.17,1.44.36,2.14-3.14,2.03-5.71,4.91-7.33,8.29-.18.38-.12.89.29,1.11.4.2.8.33,1.22.41-1.36,1.57-2.32,3.48-2.63,5.61-.12.82.69,1.3,1.35.79,2.12-1.66,4.96-1.6,7.47-1.09,2.83.58,5.57,1.66,8.16,2.91,5.29,2.55,10.08,5.97,15.03,9.09.43,1.39,1.72,2.51,3.15,2.74.46.07.91.05,1.34-.03,4.45,7.08,9.64,13.68,15.46,19.67-6.04-3.46-12.5-6.16-19.24-8-.25-1.32-1.44-2.41-2.81-2.44-2.84-2.43-5.82-4.73-8.42-7.43-2.37-2.47-6.07-6.49-4.69-10.22.27-.72-.61-1.19-1.19-.91-1.25.6-2.24,1.53-3,2.63-.1-.15-.21-.29-.35-.42-.31-.32-.83-.29-1.14,0-1.87,1.73-3.23,3.97-3.96,6.42-.32.02-.64.03-.97.1-1.39.28-2.93,1.14-3.24,2.65-.35,1.7,1.58,2.45,1.45,4.06-.02.27-.05.53-.08.8-.26-.03-.53.08-.67.41-.83,1.89-1.68,3.77-2.49,5.66-.67,1.56-1.11,3.12-.75,4.82.59,2.82,2.82,4.7,5.33,5.85-.68,1.71-.58,3.67.23,5.31.73,1.49,2.05,2.61,3.58,3.21.34.14.73-.09.91-.37.6-.91,1.2-1.82,1.81-2.73.55.24,1.03.59,1.18,1.23.15.65,1.17.82,1.48.19,3.26-6.6,8.6-11.98,15.18-15.28.09-.04.14-.1.2-.16.67-.13,1.28-.44,1.72-.97.19-.23.34-.48.47-.75,9.19,2.53,17.88,6.69,25.61,12.25,2.05,1.83,4.14,3.6,6.31,5.28,3.15,2.44,6.42,4.72,9.81,6.83.25.15.48.15.68.06-2.29,8.29-5.39,16.35-9.29,24.02-1.97,3.86-4.13,7.62-6.48,11.27-.56.88.83,1.69,1.4.82,8.45-13.14,14.52-27.81,17.79-43.09.83-3.87,1.45-7.79,1.92-11.72ZM150.94,43.55c-3.38,4.05-6.14,8.55-8.91,13.03,1.69-4.14,3.46-8.24,5.32-12.31.13-.28-.3-.5-.43-.22-.58,1.26-1.15,2.53-1.71,3.8-1.62,3.65-3.15,7.34-4.63,11.05-.31.49-.62.99-.93,1.48-.4.1-.8.19-1.19.28.21-.5.38-1.05.57-1.49l1.11-2.57c1.32-3.06,2.65-6.13,3.97-9.19,1.27-2.94,2.54-5.88,3.81-8.83.81-1.88,1.66-3.75,2.37-5.67.11-.02.22-.06.33-.13,3.85-2.63,9.24-2.3,12.91.44-1.79-.42-3.69-.31-5.42.36-.29.11-.14.57.15.46,2-.78,4.23-.77,6.23-.02.11.1.21.22.32.33-5.63.01-10.52,5.2-13.86,9.21ZM161.13,29.03c-.28.21-.59.37-.95.48-.17.05-.28.14-.37.24-2.91-.72-6.06-.48-8.76.9.03-.09.06-.19.09-.28.47-1.68.78-3.45.73-5.2,3.34.5,6.56,1.84,9.27,3.86ZM143.11,21.86c.98-.53,1.5-1.47,2.31-2.17.5-.44.99-.57,1.45-.52.06.72.07,1.45.02,2.17-.21,3.11-1.43,6.15-3.43,8.55-.2.24.16.56.36.32.58-.7,1.11-1.45,1.56-2.24,1.49-2.62,2.18-5.66,1.98-8.66,1.34.58,2.37,2.75,2.65,3.95.58,2.44.09,5-.63,7.35-.77,2.52-1.88,4.93-2.93,7.34-1.14,2.64-2.28,5.27-3.42,7.91-1.27,2.94-2.54,5.88-3.81,8.83-.64,1.47-1.27,2.94-1.91,4.41-.15.34-.27.8-.48,1.1.13.06.13.11.01.14-.06.03-.11.06-.17.08-.05-.14-.11-.29-.16-.43,0-1.13.02-2.27.05-3.4.16-5.56.6-11.1,1.31-16.62.04-.3-.43-.41-.47-.1-.2,1.57-.39,3.15-.55,4.73-.47,4.7-.74,9.42-.81,14.15-1.06-2.85-2.13-5.71-3.19-8.56-1.3-3.48-3.02-7.09-3.23-10.85-.07-2.73.73-5.33,1.83-7.81.94-2.11,1.95-4.29,3.25-6.2.58-.85,1.27-1.66,2.15-2.22,1.01-.64,2.1-.69,3.26-.7,1.02,0,2.06-.05,2.97-.54ZM122.56,18.4c2.51-.73,4.98.06,7.41.73.07.02.14.04.22.06-1.25,1.65-.83,3.99-.37,5.92.07.3.53.15.46-.15-.42-1.78-.88-4.12.43-5.63,2.17.61,4.34,1.21,6.51,1.82-.9.33-1.71.86-2.39,1.53-1.97,1.9-3.18,4.64-4.32,7.1-.03-.02-.04-.05-.07-.07-2.4-1.47-5.18-1.87-7.96-1.94-2.46-.06-5.07-.09-7.53.36.97-4.19,3.22-8.44,7.62-9.73ZM102.86,34.07c.55-1.72,1.62-3.16,2.98-4.18.77.35,1.47.83,2.03,1.47.09.1.26.07.34-.02.09-.1.07-.24-.02-.34-.53-.59-1.2-1.05-1.91-1.41,1.89-1.24,4.27-1.73,6.64-1.14.1.03.2.02.29.01,0,.02-.01.04-.01.06-2.33.72-4.52,2.21-5.5,4.51-.34.8-.46,1.91-.61,3.03-1.41-.67-2.82-1.33-4.22-2ZM106.75,41.07c.91-.9,1.37-2.16,1.63-3.48,2.64,1.33,5.15,2.89,7.49,4.69.24.19.56-.17.32-.36-2.41-1.85-5-3.47-7.72-4.83.03-.18.06-.35.08-.52.19-1.45.39-2.91,1.32-4.09.78-.99,1.89-1.72,3.06-2.18.6-.24,1.23-.41,1.86-.54,0,0,0,0,0,0,2.21,1.88,4.24,3.97,6.05,6.25.19.24.59-.02.4-.26-1.76-2.21-3.73-4.25-5.87-6.1,2-.34,4.11-.29,6.09-.29,2.82,0,5.68.23,8.14,1.73.09.05.17.07.25.09-1.1,2.58-1.9,5.28-1.83,8.12.21,3.81,1.83,7.38,3.14,10.91,1.39,3.72,2.78,7.45,4.16,11.17-.37.09-.74.18-1.1.26,0-.03,0-.05,0-.07-2.35-4.2-4.98-8.24-7.85-12.09-.18-.25-.58.01-.4.26,2.83,3.79,5.41,7.76,7.72,11.88-6.61-9.46-16.1-16.66-26.95-20.56ZM134.67,63.23c1.59-.38,3.17-.76,4.76-1.14-.04.38-.16.76-.36,1.12-.29.49-.72.89-1.24,1.11-.32-.34-.99-.29-1.3.15-.4-.08-.65-.17-.99-.38-.36-.22-.65-.52-.87-.86ZM109.95,14.26c-7.26,7.29-12.22,16.73-14.06,26.86.32-4.11.88-8.19,1.7-12.23.06-.28-.38-.34-.43-.06-.87,4.31-1.47,8.67-1.77,13.06-.31.07-.62.13-.93.19-.3-3.6-.61-7.19-.91-10.79-.28-3.38-.32-6.95-1.61-10.13-.01-.04-.04-.06-.06-.09-.01-.04,0-.07-.02-.11-1-2.26-2.62-4.13-4.44-5.76-.06-.05-.12-.1-.18-.16.06-.05.12-.1.17-.17,1.34-2.04,3.44-3.3,5.59-4.34,1.73-.85,3.58-1.79,5.49-2.33-1.03,2.34-1.85,4.77-2.44,7.26-.06.27.37.33.43.06.6-2.56,1.45-5.05,2.53-7.45.47-.11.94-.2,1.41-.25,2.58-.27,4.6.69,6.01,2.85.21.32.43.65.66.98-1.7,2.17-3.2,4.5-4.46,6.96-.13.25.28.42.4.17,1.23-2.38,2.68-4.64,4.33-6.75.71.95,1.54,1.82,2.59,2.24ZM105.95,4.61c-.42.56-.78,1.17-.98,1.84-.03.11,0,.24.12.29.1.04.25,0,.29-.12.21-.71.58-1.34,1.04-1.91,1.51.31,2.93,1.07,4.05,2.23-.86,1.05-1.73,2.1-2.59,3.15-.6-.91-1.18-1.84-1.89-2.4-1.68-1.34-3.87-1.68-5.96-1.42.04-.02.09-.03.13-.07,1.7-1.38,3.79-1.87,5.79-1.59ZM81.9,5.62c1.62.76,2.14,2.84,2.48,4.45.06.27.49.22.43-.06-.37-1.74-.93-3.81-2.55-4.71,1.7-1.47,3.4-3.1,5.68-3.55,4.14-.82,7.79,1.82,10.25,4.92-2.23.61-4.4,1.66-6.43,2.69-2.23,1.13-4.3,2.55-5.7,4.66-1.47-1.26-3.04-2.47-4.69-3.39-1-.55-2.09-.98-3.23-1.08-.27-.02-.53-.01-.79,0,1.52-1.31,3.03-2.63,4.55-3.94ZM68.09,12.13c1.01,2.52,2.73,4.75,4.96,6.32.68.48,1.41.9,2.16,1.25.26.12.42-.28.17-.4-2.59-1.2-4.77-3.24-6.16-5.73-.31-.55-.56-1.12-.79-1.71.04-.02.06-.06.1-.08.84-.48,1.78.14,2.57.46.91.36,1.81.46,2.76.19.89-.25,1.68-.78,2.56-1.07,1.19-.39,2.4-.16,3.51.36,2.23,1.04,4.25,2.81,6.09,4.43,1.81,1.59,3.39,3.37,4.39,5.58,1.24,3.14,1.27,6.65,1.55,9.98.24,2.82.48,5.64.71,8.47-1.89-3.84-3.9-7.62-6.11-11.29-.75-1.24-1.51-2.47-2.29-3.69-.15-.24-.5.03-.35.27,2.74,4.28,5.27,8.69,7.57,13.23.44.87.86,1.74,1.28,2.62.01.16.03.33.04.49-3.82-3.36-7.63-6.72-11.45-10.08-3.5-3.08-7.27-6.02-10.44-9.44-1.4-1.51-2.69-3.23-3.3-5.22-.41-1.35-.7-3.74.46-4.9ZM66.61,18.79c.39.87.87,1.72,1.43,2.49.39.54.81,1.05,1.25,1.55-2.72-.02-5.38.97-7.5,2.65-.15-.04-.3-.06-.46-.04-.25.04-.5.04-.75,0,1.45-2.67,3.5-4.95,6.02-6.65ZM73.77,33.07c-4.19-1.84-9.73-3.87-14.15-1.92.05-.14.12-.28.18-.42,1.35-1.3,3.11-2.12,4.98-2.25.28-.02.22-.45-.06-.43-1.61.11-3.14.7-4.42,1.65,1.98-3.51,6.04-5.83,10.14-5.19.15.02.28,0,.4-.04.7.69,1.42,1.36,2.16,2.01,2.3,2.04,4.61,4.06,6.92,6.1,2.61,2.3,5.22,4.6,7.82,6.89,1.23,1.08,2.45,2.18,3.69,3.25-.21.04-.41.09-.62.13-.13.03-.26.05-.39.08-.55-.35-1.1-.7-1.65-1.05-2.58-2.4-5.18-4.76-7.85-7.06-.96-.83-1.93-1.65-2.9-2.47-.22-.18-.48.17-.27.35,3.01,2.54,5.96,5.14,8.86,7.8-4.16-2.71-8.32-5.42-12.88-7.41ZM93.32,45.49c-.07,0-.13,0-.2-.01-.02,0-.13-.02-.15-.03-.41-.09-.56-.16-.93-.4-.16-.1-.49-.42-.59-.56-.03-.04-.05-.07-.07-.11,1.4-.29,2.8-.59,4.2-.88,0,.04-.01.08-.01.09-.09.38-.15.52-.36.86-.02.04-.15.21-.13.18.02-.02-.12.13-.15.17-.06.06-.12.12-.18.17-.04.03-.08.07-.12.1-.43-.25-1.01,0-1.18.42-.04,0-.09,0-.13,0ZM77.07,49.01c1.8,2.01,3.84,3.78,5.9,5.52-1.86-1.12-3.71-2.25-5.54-3.43-.16-.1-.34.14-.17.24.73.47,1.46.94,2.2,1.4,1.62,1.02,3.26,2,4.91,2.97.69.58,1.38,1.15,2.06,1.74,0,.03,0,.06,0,.09,0,0,0,0,0,0-.51-.32-1.03-.63-1.54-.95-1.83-1.12-3.66-2.24-5.48-3.36-1.83-1.12-3.66-2.24-5.48-3.36-1-.61-2-1.24-3.04-1.8-.01-.07-.02-.15-.06-.22-1.11-2.3-.59-5.05.97-6.98-.21.86-.24,1.76-.04,2.63.04.19.34.14.29-.05-.24-1.02-.17-2.08.17-3.06.08-.08.16-.15.24-.22-.04,3.31,2.52,6.53,4.6,8.85ZM69.13,41.8c.02.12.05.23.1.33-.59,1.57-.74,3.31-.35,4.95-.79-.32-1.61-.58-2.45-.71.57-1.7,1.48-3.25,2.69-4.57ZM64.83,47.88c1.9-.11,3.74.74,5.37,1.64,1.81,1,3.54,2.13,5.3,3.21,3.4,2.09,6.81,4.18,10.21,6.26l-.35.08c-.42-.07-.85-.13-1.27-.2-3.43-.59-6.82-1.35-10.17-2.29-.18-.05-.29.23-.11.28.96.27,1.91.52,2.88.76,2.62.65,5.27,1.17,7.93,1.61-1.61.35-3.22.7-4.82,1.05-2.32.5-4.69,1.23-7.08,1.04-1.9-.24-3.58-1.19-5.15-2.23-1.34-.89-3.13-1.89-3.86-3.39-.75-1.54.42-3.21-.62-4.74-.39-.58-1.09-1.07-.9-1.73.33.03.66.05.99.12,1.91.41,3.68,1.43,4.99,2.88.13.14.36-.05.23-.19-.38-.42-.8-.81-1.25-1.16-1.39-1.07-3.07-1.73-4.81-1.93.02-.03.03-.06.05-.09.53-.7,1.62-.93,2.44-.97ZM59.51,64.09c-.21-1.5.45-2.9,1.04-4.24l.07-.16c.92.7,2.26.66,3.39.56.19-.02.14-.31-.05-.29-1.04.09-2.37.17-3.22-.54.48-1.1.96-2.19,1.45-3.29.19.45.43.88.74,1.26.96,1.18,2.31,2.1,3.61,2.93-.95,1.29-1.48,2.75-1.76,4.33-.27,1.49-.53,3.08-.52,4.63-2.26-.96-4.37-2.63-4.74-5.2ZM64.89,74.95c-.42-.95-.49-2.01-.27-3.02.26.83.7,1.6,1.3,2.23-.06-.04-.13-.04-.19,0-.32.22-.6.49-.85.8ZM67.07,77.34c-.87-.47-1.57-1.2-2.04-2.07.26-.33.55-.64.9-.88.06-.04.06-.13.02-.19.12.12.21.25.34.36.59.48,1.26.74,1.97.96-.4.61-.8,1.21-1.2,1.82ZM71.78,75.45c-.47-.47-1.08-.82-1.73-1.06,1.01-1.41,2.12-2.76,3.37-3.97.14-.13-.05-.36-.19-.23-1.28,1.25-2.42,2.63-3.46,4.09-.91-.3-1.88-.43-2.61-1.12-.55-.51-.89-1.21-1.08-1.93-.13-.48-.19-.98-.21-1.49,1.28-1.1,2.65-2.1,4.12-2.96.17-.1.04-.37-.13-.27-1.41.83-2.74,1.79-3.99,2.84,0-1.22.19-2.48.37-3.63.25-1.6.61-3.26,1.66-4.54,0,0,0,0,0,0,1.5.88,3.08,1.54,4.84,1.76,2.41.19,4.8-.5,7.13-1.01,2.28-.5,4.57-.99,6.85-1.49,0,.11.02.21.03.32,0,.04,0,.08.01.12-2.72,1.06-5.37,2.29-7.94,3.68-.17.09-.04.36.13.27,1.75-.96,3.56-1.8,5.39-2.6-5.25,3.22-9.6,7.81-12.55,13.23ZM88.49,59.89s-.03.04-.05.07c-.04.06-.09.11-.15.16-.06-.69-.13-1.37-.19-2.06.02.01.04.02.05.03.01,0,.03.02.04.03.09.08.17.16.26.25.01.01,0,0,.02.01,0,0,0,0,0,0,.03.05.07.1.1.15.03.05.06.11.09.17,0,0,0,.01,0,.02-.2.27-.24.67-.06.95-.01.02-.02.04-.03.06-.03.05-.06.1-.09.15Z"/>
      </g>
      <path class="cls-2" d="M168.33,56.37c2.28-2.82,4.42-5.76,6.44-8.78,1.07.23,2.24-.01,3.13-.67.66-.49,1.17-1.14,1.43-1.91,5.05-2.99,9.94-6.28,15.31-8.68,2.58-1.16,5.3-2.13,8.08-2.64,2.58-.47,5.47-.46,7.59,1.3.47.39,1.47.2,1.38-.57-.25-2.18-1.17-4.2-2.52-5.87.43-.06.86-.19,1.28-.39.42-.2.45-.74.29-1.11-1.52-3.42-4-6.35-7.08-8.47.05-.17.13-.34.17-.52.46-1.9.42-4.23-.97-5.76-.6-.66-1.43-1.05-2.33-1.03-1.22.03-2.25.96-3.46.9-.96-.05-1.84-.66-2.72-1.08.26-.29.34-.72-.03-1.06-2.11-1.93-4.22-3.88-6.34-5.8-1.82-1.66-3.74-3.1-6.25-3.42-4.25-.54-7.91,1.74-10.65,4.76-.02-.03-.03-.05-.06-.08-1.88-1.62-4.36-2.53-6.86-2.31-2.42.22-4.7,1.37-6.28,3.23-.31.37-.29.77,0,1.14,1.05,1.35,2.1,2.7,3.15,4.05-.77.88-1.65,1.51-2.85,1.37-.72-.08-1.03.92-.57,1.38,7.65,7.63,12.61,17.67,14.09,28.37.02.13.06.24.12.32-.26,1.46.36,2.92,1.5,3.85-7.59,11.31-17.14,21.3-28.14,29.33-3.21,2.34-6.54,4.52-9.96,6.53-.9.53-.09,1.91.82,1.4,9.16-5.22,31.79-22.01,42.98-23.83.13.27.28.53.47.75.44.53,1.05.85,1.72.97.06.06.12.12.2.16,6.58,3.31,11.92,8.68,15.18,15.28.31.62,1.32.46,1.48-.19.15-.64.63-.99,1.18-1.23.6.91,1.2,1.82,1.81,2.73.18.27.57.51.91.37,1.53-.61,2.85-1.72,3.58-3.21.81-1.65.91-3.6.23-5.31,2.51-1.14,4.74-3.03,5.33-5.85.36-1.7-.08-3.26-.75-4.82-.81-1.9-1.66-3.78-2.49-5.66-.14-.32-.4-.43-.66-.41-.1-.7-.26-1.41.14-2.03.4-.63,1.01-1.09,1.2-1.85.36-1.45-.82-2.71-2.05-3.25-.68-.3-1.41-.43-2.14-.47-.73-2.44-2.08-4.68-3.95-6.41-.32-.29-.83-.32-1.14,0-.13.14-.25.28-.35.42-.76-1.09-1.75-2.03-3-2.62-.57-.27-1.45.19-1.19.91,1.38,3.73-2.32,7.75-4.69,10.22-2.6,2.7-5.57,5-8.42,7.43-1.36.03-2.56,1.12-2.81,2.44-7.31,1.99-14.31,4.97-20.78,8.87,3.67-3.5,7.13-7.23,10.33-11.18Z"/>
      <path class="cls-2" d="M137.83,66.01c1.19-.29,2.23-1.13,2.77-2.26.38-.78.52-1.63.4-2.49,3.38-5.3,6.46-10.84,10.41-15.75,1.93-2.4,4.05-4.71,6.47-6.62,2.41-1.9,5.39-3.5,8.54-2.78.65.15,1.32-.57.91-1.19-1.32-2.01-3.24-3.52-5.4-4.46.38-.25.72-.56,1.01-.93.25-.32.37-.84,0-1.14-3.24-2.63-7.1-4.29-11.22-4.86-.06-.34-.13-.68-.22-1.02-.58-2.13-2.03-4.55-4.4-4.91-2.8-.43-3.49,2.94-6.01,3.16-.75.07-1.49.04-2.23.08.14-.4.01-.9-.51-1.04-3.02-.84-6.03-1.7-9.06-2.53-2.57-.71-5.17-1.18-7.74-.23-4.37,1.61-6.85,5.64-8,9.94-.06-.03-.12-.07-.19-.09-2.7-.67-5.65-.24-7.98,1.3-2.13,1.41-3.67,3.62-4.26,6.1-.08.32.04.76.37.91,1.69.8,3.38,1.6,5.07,2.4.08.04.16.05.24.06-.3,1.29-.81,2.41-2.03,2.84-.75.27-.78,1.3,0,1.56,11.16,3.63,20.99,10.94,27.68,20.59.09.14.21.22.34.27.4,1.62,1.82,2.81,3.43,3.12-.72,5.88-1.85,11.7-3.37,17.43-.06-.07-.12-.14-.21-.2-3.42-2.14-6.72-4.47-9.9-6.95,0-.17-.08-.35-.25-.5-1.87-1.62-3.83-3.12-5.84-4.56-5.48-4.89-10.51-10.27-14.97-16.1-2.17-2.83-4.18-5.77-6.08-8.79.47-.34.88-.8,1.17-1.35.41-.77.55-1.62.42-2.47.07-.09.12-.19.14-.33,1.78-10.66,7.03-20.54,14.9-27.95.48-.46.14-1.44-.57-1.38-1.2.11-2.06-.55-2.8-1.45,0,0,.01,0,.02-.02,1.09-1.32,2.17-2.64,3.26-3.96.3-.37.3-.77,0-1.14-1.53-1.9-3.78-3.11-6.19-3.39-2.5-.29-4.98.55-6.91,2.13-.02.02-.03.04-.05.06-2.67-3.11-6.32-5.53-10.59-5.05-2.44.27-4.34,1.58-6.15,3.14-2.22,1.9-4.42,3.82-6.63,5.73-.38.33-.3.76-.04,1.05-.3.11-.59.24-.89.38-.59.27-1.22.61-1.89.62-.57,0-1.09-.25-1.61-.47-.99-.42-2-.74-3.05-.32-1.88.74-2.51,3.03-2.45,4.87.02.73.17,1.44.36,2.14-3.14,2.03-5.71,4.91-7.33,8.29-.18.38-.12.89.29,1.11.4.2.8.33,1.22.41-1.36,1.57-2.32,3.48-2.63,5.61-.12.82.69,1.3,1.35.79,2.12-1.66,4.96-1.6,7.47-1.09,2.83.58,5.57,1.66,8.16,2.91,5.29,2.55,10.08,5.97,15.03,9.09.43,1.39,1.72,2.51,3.15,2.74.46.07.91.05,1.34-.03,4.45,7.08,9.64,13.68,15.46,19.67-6.04-3.46-12.5-6.16-19.24-8-.25-1.32-1.44-2.41-2.81-2.44-2.84-2.43-5.82-4.73-8.42-7.43-2.37-2.47-6.07-6.49-4.69-10.22.27-.72-.61-1.19-1.19-.91-1.25.6-2.24,1.53-3,2.63-.1-.15-.21-.29-.35-.42-.31-.32-.83-.29-1.14,0-1.87,1.73-3.23,3.97-3.96,6.42-.32.02-.64.03-.97.1-1.39.28-2.93,1.14-3.24,2.65-.35,1.7,1.58,2.45,1.45,4.06-.02.27-.05.53-.08.8-.26-.03-.53.08-.67.41-.83,1.89-1.68,3.77-2.49,5.66-.67,1.56-1.11,3.12-.75,4.82.59,2.82,2.82,4.7,5.33,5.85-.68,1.71-.58,3.67.23,5.31.73,1.49,2.05,2.61,3.58,3.21.34.14.73-.09.91-.37.6-.91,1.2-1.82,1.81-2.73.55.24,1.03.59,1.18,1.23.15.65,1.17.82,1.48.19,3.26-6.6,8.6-11.98,15.18-15.28.09-.04.14-.1.2-.16.67-.13,1.28-.44,1.72-.97.19-.23.34-.48.47-.75,9.19,2.53,17.88,6.69,25.61,12.25,2.05,1.83,4.14,3.6,6.31,5.28,3.15,2.44,6.42,4.72,9.81,6.83.25.15.48.15.68.06-2.29,8.29-5.39,16.35-9.29,24.02-1.97,3.86-4.13,7.62-6.48,11.27-.56.88.83,1.69,1.4.82,8.45-13.14,14.52-27.81,17.79-43.09.83-3.87,1.45-7.79,1.92-11.72Z"/>
      <g>
        <polygon class="cls-3" points="276.42 81.41 .81 81.41 .81 138.59 27.74 138.59 27.74 184.6 245.9 184.6 245.9 138.59 276.42 138.59 276.42 81.41"/>
        <path class="cls-2" d="M276.42,80.6H.81c-.45,0-.81.36-.81.81v57.18c0,.45.36.81.81.81h26.12v45.2c0,.45.36.81.81.81h218.16c.45,0,.81-.36.81-.81v-45.2h29.71c.45,0,.81-.36.81-.81v-57.18c0-.45-.36-.81-.81-.81ZM245.09,183.79H28.55v-44.39h216.54v44.39ZM275.61,137.78H1.62v-55.56h273.99v55.56Z"/>
        <g>
          <path class="cls-2" d="M46.42,171.23v-15.96h7.25c1.73,0,3.26.33,4.58.99s2.36,1.58,3.1,2.77c.75,1.19,1.12,2.59,1.12,4.22s-.37,3.01-1.12,4.21c-.74,1.19-1.78,2.12-3.1,2.78s-2.85.99-4.58.99h-7.25ZM50.11,168.2h3.37c1.06,0,1.99-.2,2.77-.6.78-.4,1.39-.98,1.82-1.72.43-.74.65-1.62.65-2.62s-.22-1.89-.65-2.63c-.43-.74-1.04-1.31-1.82-1.71-.78-.4-1.71-.6-2.77-.6h-3.37v9.89Z"/>
          <path class="cls-2" d="M74.84,168.26h8.68v2.96h-12.35v-15.96h12.06v2.96h-8.39v10.03ZM74.57,161.7h7.68v2.87h-7.68v-2.87Z"/>
          <path class="cls-2" d="M97.64,171.5c-1.28,0-2.5-.17-3.67-.51-1.17-.34-2.11-.79-2.83-1.33l1.25-2.78c.68.49,1.49.88,2.43,1.2.93.31,1.88.47,2.84.47.73,0,1.32-.07,1.77-.22.45-.14.78-.35.99-.6.21-.26.32-.56.32-.89,0-.43-.17-.76-.5-1.02-.33-.25-.78-.46-1.32-.62-.55-.16-1.15-.31-1.81-.45-.66-.15-1.32-.32-1.98-.54-.66-.21-1.26-.49-1.81-.82-.55-.33-.99-.78-1.33-1.32-.34-.55-.51-1.25-.51-2.1,0-.91.25-1.74.74-2.5.49-.75,1.24-1.35,2.23-1.8,1-.45,2.25-.67,3.75-.67,1,0,1.99.12,2.96.35s1.83.59,2.58,1.06l-1.14,2.8c-.75-.43-1.49-.74-2.23-.95-.75-.21-1.47-.31-2.19-.31s-1.3.08-1.76.25c-.46.17-.78.39-.98.65s-.3.57-.3.92c0,.41.17.74.5.99.33.25.78.45,1.32.6.55.15,1.15.3,1.81.46.66.15,1.32.33,1.98.52.66.2,1.27.46,1.81.8.55.33.99.78,1.33,1.32.34.55.51,1.24.51,2.07,0,.9-.25,1.72-.75,2.46-.5.74-1.25,1.34-2.25,1.8s-2.25.68-3.77.68Z"/>
          <path class="cls-2" d="M130.48,171.5c-1.28,0-2.5-.17-3.67-.51-1.17-.34-2.11-.79-2.83-1.33l1.25-2.78c.68.49,1.49.88,2.43,1.2.93.31,1.88.47,2.84.47.73,0,1.32-.07,1.77-.22.45-.14.78-.35.99-.6.21-.26.32-.56.32-.89,0-.43-.17-.76-.5-1.02-.33-.25-.78-.46-1.32-.62-.55-.16-1.15-.31-1.81-.45-.66-.15-1.32-.32-1.98-.54-.66-.21-1.26-.49-1.81-.82-.55-.33-.99-.78-1.33-1.32-.34-.55-.51-1.25-.51-2.1,0-.91.25-1.74.74-2.5.49-.75,1.24-1.35,2.23-1.8,1-.45,2.25-.67,3.75-.67,1,0,1.99.12,2.96.35s1.83.59,2.58,1.06l-1.14,2.8c-.75-.43-1.49-.74-2.23-.95-.75-.21-1.47-.31-2.19-.31s-1.3.08-1.76.25c-.46.17-.78.39-.98.65s-.3.57-.3.92c0,.41.17.74.5.99.33.25.78.45,1.32.6.55.15,1.15.3,1.81.46.66.15,1.32.33,1.98.52.66.2,1.27.46,1.81.8.55.33.99.78,1.33,1.32.34.55.51,1.24.51,2.07,0,.9-.25,1.72-.75,2.46-.5.74-1.25,1.34-2.25,1.8s-2.25.68-3.77.68Z"/>
          <path class="cls-2" d="M143.61,171.23l7.11-15.96h3.65l7.13,15.96h-3.87l-5.84-14.09h1.46l-5.86,14.09h-3.78ZM147.17,167.81l.98-2.8h8.21l1,2.8h-10.19Z"/>
          <path class="cls-2" d="M176.57,171.5c-1.26,0-2.42-.2-3.48-.6s-1.98-.98-2.76-1.72c-.78-.75-1.39-1.62-1.82-2.62-.43-1-.65-2.1-.65-3.3s.22-2.3.65-3.3c.43-1,1.05-1.88,1.84-2.62.79-.74,1.72-1.32,2.78-1.72,1.06-.4,2.23-.6,3.51-.6,1.41,0,2.69.24,3.82.71,1.13.47,2.09,1.16,2.86,2.05l-2.37,2.19c-.58-.61-1.21-1.06-1.89-1.36-.69-.3-1.43-.45-2.23-.45s-1.48.12-2.12.36-1.19.59-1.65,1.05c-.46.46-.82,1-1.07,1.62-.25.62-.38,1.32-.38,2.07s.12,1.43.38,2.05c.25.62.61,1.17,1.07,1.63.46.46,1.01.82,1.64,1.06.63.24,1.33.36,2.09.36s1.44-.12,2.13-.35c.69-.24,1.36-.63,2.02-1.2l2.1,2.67c-.87.65-1.87,1.16-3.02,1.5-1.15.35-2.29.52-3.43.52ZM179.65,168.99v-5.99h3.37v6.47l-3.37-.48Z"/>
          <path class="cls-2" d="M196.04,168.26h8.68v2.96h-12.35v-15.96h12.06v2.96h-8.39v10.03ZM195.76,161.7h7.68v2.87h-7.68v-2.87Z"/>
          <path class="cls-2" d="M218.83,171.5c-1.28,0-2.5-.17-3.67-.51-1.17-.34-2.11-.79-2.83-1.33l1.25-2.78c.68.49,1.49.88,2.43,1.2.93.31,1.88.47,2.84.47.73,0,1.32-.07,1.77-.22.45-.14.78-.35.99-.6.21-.26.32-.56.32-.89,0-.43-.17-.76-.5-1.02-.33-.25-.78-.46-1.32-.62-.55-.16-1.15-.31-1.81-.45-.66-.15-1.32-.32-1.98-.54-.66-.21-1.26-.49-1.81-.82-.55-.33-.99-.78-1.33-1.32-.34-.55-.51-1.25-.51-2.1,0-.91.25-1.74.74-2.5.49-.75,1.24-1.35,2.23-1.8,1-.45,2.25-.67,3.75-.67,1,0,1.99.12,2.96.35s1.83.59,2.58,1.06l-1.14,2.8c-.75-.43-1.49-.74-2.23-.95-.75-.21-1.47-.31-2.19-.31s-1.3.08-1.76.25c-.46.17-.78.39-.98.65s-.3.57-.3.92c0,.41.17.74.5.99.33.25.78.45,1.32.6.55.15,1.15.3,1.81.46.66.15,1.32.33,1.98.52.66.2,1.27.46,1.81.8.55.33.99.78,1.33,1.32.34.55.51,1.24.51,2.07,0,.9-.25,1.72-.75,2.46-.5.74-1.25,1.34-2.25,1.8s-2.25.68-3.77.68Z"/>
        </g>
        <g>
          <path class="cls-2" d="M51.75,124.04c-1.79,0-3.43-.33-4.93-1-1.5-.67-2.73-1.62-3.68-2.85l3.4-4.08c.73.96,1.5,1.68,2.3,2.17s1.68.74,2.61.74c2.49,0,3.74-1.46,3.74-4.38v-12.58h-9.29v-4.91h15.37v17.15c0,3.27-.81,5.72-2.42,7.33-1.61,1.61-3.98,2.42-7.1,2.42Z"/>
          <path class="cls-2" d="M70.82,123.59l11.78-26.44h6.04l11.82,26.44h-6.42l-9.67-23.34h2.42l-9.71,23.34h-6.27ZM76.71,117.93l1.62-4.65h13.6l1.66,4.65h-16.88Z"/>
          <path class="cls-2" d="M110.78,123.59v-26.44h11.44c2.37,0,4.41.38,6.12,1.15,1.71.77,3.03,1.87,3.97,3.3s1.4,3.15,1.4,5.14-.47,3.66-1.4,5.08-2.25,2.51-3.97,3.27c-1.71.75-3.75,1.13-6.12,1.13h-8.04l2.72-2.68v10.05h-6.12ZM116.9,114.23l-2.72-2.87h7.7c1.89,0,3.3-.41,4.23-1.23.93-.82,1.4-1.95,1.4-3.38s-.47-2.59-1.4-3.4c-.93-.81-2.34-1.21-4.23-1.21h-7.7l2.72-2.91v14.99ZM127.59,123.59l-6.61-9.59h6.53l6.68,9.59h-6.61Z"/>
          <path class="cls-2" d="M146.09,123.59v-26.44h12.01c2.87,0,5.4.55,7.59,1.64,2.19,1.1,3.9,2.63,5.14,4.59,1.23,1.96,1.85,4.29,1.85,6.99s-.62,4.99-1.85,6.97-2.94,3.51-5.14,4.61c-2.19,1.1-4.72,1.64-7.59,1.64h-12.01ZM152.21,118.57h5.59c1.76,0,3.29-.33,4.59-1,1.3-.67,2.3-1.62,3.02-2.85.72-1.23,1.08-2.68,1.08-4.34s-.36-3.14-1.08-4.36c-.72-1.22-1.73-2.16-3.02-2.83-1.3-.67-2.83-1-4.59-1h-5.59v16.39Z"/>
          <path class="cls-2" d="M184.84,123.59v-26.44h6.12v26.44h-6.12Z"/>
          <path class="cls-2" d="M204.78,123.59v-26.44h5.06l15.6,19.03h-2.46v-19.03h6.04v26.44h-5.02l-15.64-19.03h2.46v19.03h-6.04Z"/>
        </g>
      </g>
      <g>
        <path class="cls-3" d="M87.75,39.47c-2.61-2.3-5.22-4.6-7.82-6.89-2.31-2.03-4.62-4.06-6.92-6.1-.74-.65-1.46-1.32-2.16-2.01-.12.04-.25.06-.4.04-4.1-.64-8.16,1.69-10.14,5.19,1.28-.95,2.81-1.54,4.42-1.65.28-.02.34.41.06.43-1.87.13-3.64.95-4.98,2.25-.06.14-.13.28-.18.42,4.43-1.95,9.96.08,14.15,1.92,4.55,2,8.72,4.71,12.88,7.41-2.9-2.65-5.85-5.26-8.86-7.8-.22-.18.05-.53.27-.35.97.82,1.94,1.64,2.9,2.47,2.66,2.3,5.27,4.67,7.85,7.06.55.35,1.1.7,1.65,1.05.13-.03.26-.05.39-.08.21-.04.41-.09.62-.13-1.24-1.08-2.46-2.17-3.69-3.25Z"/>
        <path class="cls-3" d="M70.93,22.25c3.17,3.43,6.94,6.36,10.44,9.44,3.82,3.36,7.63,6.72,11.45,10.08-.01-.16-.03-.33-.04-.49-.42-.87-.84-1.75-1.28-2.62-2.3-4.53-4.82-8.95-7.57-13.23-.15-.24.19-.5.35-.27.78,1.22,1.55,2.45,2.29,3.69,2.21,3.67,4.22,7.45,6.11,11.29-.24-2.82-.48-5.64-.71-8.47-.28-3.33-.3-6.84-1.55-9.98-1-2.21-2.58-3.99-4.39-5.58-1.84-1.62-3.86-3.39-6.09-4.43-1.11-.52-2.32-.75-3.51-.36-.88.29-1.67.82-2.56,1.07-.95.27-1.85.17-2.76-.19-.79-.31-1.73-.94-2.57-.46-.04.02-.06.06-.1.08.23.58.48,1.16.79,1.71,1.39,2.49,3.58,4.53,6.16,5.73.25.12.09.52-.17.4-.76-.35-1.48-.77-2.16-1.25-2.22-1.56-3.95-3.79-4.96-6.32-1.16,1.17-.87,3.55-.46,4.9.61,1.99,1.9,3.71,3.3,5.22Z"/>
        <path class="cls-3" d="M61.8,25.48c2.11-1.68,4.77-2.67,7.5-2.65-.44-.5-.86-1.01-1.25-1.55-.56-.78-1.04-1.62-1.43-2.49-2.52,1.7-4.57,3.98-6.02,6.65.25.04.5.04.75,0,.16-.03.32,0,.46.04Z"/>
        <path class="cls-3" d="M91.39,44.38s.04.07.07.11c.09.14.43.45.59.56.36.24.52.31.93.4.02,0,.13.02.15.03.07,0,.13.01.2.01.04,0,.09,0,.13,0,.18-.43.75-.68,1.18-.42.04-.03.08-.07.12-.1.06-.05.12-.11.18-.17.03-.03.17-.19.15-.17-.02.02.1-.15.13-.18.21-.33.27-.47.36-.86,0-.01,0-.05.01-.09-1.4.29-2.8.59-4.2.88Z"/>
        <path class="cls-3" d="M70.89,48.06c1.03.56,2.03,1.18,3.04,1.8,1.83,1.12,3.66,2.24,5.48,3.36,1.83,1.12,3.65,2.24,5.48,3.36.51.32,1.03.63,1.54.95,0,0,0,0,0,0,0-.03,0-.06,0-.09-.68-.58-1.37-1.16-2.06-1.74-1.65-.97-3.29-1.95-4.91-2.97-.74-.46-1.47-.93-2.2-1.4-.16-.1.01-.35.17-.24,1.82,1.18,3.68,2.31,5.54,3.43-2.07-1.74-4.1-3.51-5.9-5.52-2.07-2.32-4.64-5.54-4.6-8.85-.08.07-.16.15-.24.22-.34.98-.41,2.04-.17,3.06.04.19-.25.24-.29.05-.2-.87-.17-1.77.04-2.63-1.55,1.92-2.08,4.67-.97,6.98.04.08.04.15.06.22Z"/>
        <path class="cls-3" d="M66.54,60.33c-1.3-.84-2.64-1.75-3.61-2.93-.31-.38-.55-.81-.74-1.26-.48,1.1-.96,2.19-1.45,3.29.85.71,2.18.63,3.22.54.19-.02.24.28.05.29-1.13.1-2.47.14-3.39-.56l-.07.16c-.59,1.34-1.26,2.73-1.04,4.24.37,2.57,2.48,4.24,4.74,5.2,0-1.55.25-3.13.52-4.63.29-1.58.81-3.04,1.76-4.33Z"/>
        <path class="cls-3" d="M65.92,74.16c-.61-.63-1.04-1.39-1.3-2.23-.22,1.01-.15,2.06.27,3.02.25-.3.53-.58.85-.8.06-.04.13-.04.19,0Z"/>
        <path class="cls-3" d="M69.23,42.13c-.05-.1-.09-.21-.1-.33-1.21,1.32-2.13,2.87-2.69,4.57.84.14,1.66.39,2.45.71-.4-1.65-.24-3.38.35-4.95Z"/>
        <path class="cls-3" d="M81.37,10.63c1.65.91,3.22,2.13,4.69,3.39,1.4-2.11,3.47-3.53,5.7-4.66,2.03-1.03,4.2-2.08,6.43-2.69-2.45-3.1-6.11-5.73-10.25-4.92-2.28.45-3.98,2.08-5.68,3.55,1.63.9,2.18,2.97,2.55,4.71.06.28-.38.33-.43.06-.34-1.61-.86-3.69-2.48-4.45-1.52,1.31-3.03,2.62-4.55,3.94.26-.02.52-.03.79,0,1.15.1,2.23.53,3.23,1.08Z"/>
        <path class="cls-3" d="M68.18,52.22c-1.31-1.45-3.08-2.47-4.99-2.88-.33-.07-.66-.09-.99-.12-.19.66.51,1.15.9,1.73,1.04,1.52-.13,3.19.62,4.74.73,1.5,2.52,2.5,3.86,3.39,1.57,1.04,3.25,1.99,5.15,2.23,2.39.19,4.77-.53,7.08-1.04,1.61-.35,3.22-.7,4.82-1.05-2.66-.44-5.31-.96-7.93-1.61-.96-.24-1.92-.49-2.88-.76-.19-.05-.08-.33.11-.28,3.35.93,6.74,1.7,10.17,2.29.42.07.85.13,1.27.2l.35-.08c-3.4-2.09-6.81-4.18-10.21-6.26-1.76-1.08-3.5-2.22-5.3-3.21-1.63-.9-3.47-1.75-5.37-1.64-.82.05-1.91.27-2.44.97-.02.03-.03.06-.05.09,1.74.2,3.43.86,4.81,1.93.45.35.87.74,1.25,1.16.13.14-.1.34-.23.19Z"/>
        <path class="cls-3" d="M137.82,64.32c.51-.22.95-.61,1.24-1.11.21-.36.33-.74.36-1.12-1.59.38-3.17.76-4.76,1.14.22.35.51.64.87.86.34.21.59.3.99.38.31-.44.98-.49,1.3-.15Z"/>
        <path class="cls-3" d="M144.12,47.4c-1.32,3.06-2.65,6.13-3.97,9.19l-1.11,2.57c-.19.44-.36.99-.57,1.49.4-.1.8-.19,1.19-.28.31-.49.62-.98.93-1.48,1.48-3.71,3.01-7.4,4.63-11.05.56-1.27,1.13-2.53,1.71-3.8.13-.28.55-.06.43.22-1.86,4.06-3.63,8.17-5.32,12.31,2.77-4.48,5.53-8.98,8.91-13.03,3.34-4.01,8.23-9.19,13.86-9.21-.11-.11-.21-.22-.32-.33-2-.75-4.24-.76-6.23.02-.29.11-.43-.34-.15-.46,1.73-.67,3.63-.78,5.42-.36-3.66-2.74-9.05-3.07-12.91-.44-.11.08-.22.12-.33.13-.71,1.92-1.56,3.79-2.37,5.67-1.27,2.94-2.54,5.88-3.81,8.83Z"/>
        <path class="cls-3" d="M93,10.54c-2.14,1.05-4.25,2.31-5.59,4.34-.05.07-.11.12-.17.17.06.05.12.1.18.16,1.82,1.64,3.44,3.51,4.44,5.76.02.04.01.07.02.11.02.03.04.05.06.09,1.29,3.18,1.33,6.75,1.61,10.13.3,3.6.61,7.19.91,10.79.31-.07.62-.13.93-.19.31-4.39.9-8.75,1.77-13.06.06-.27.49-.22.43.06-.82,4.04-1.38,8.12-1.7,12.23,1.84-10.13,6.8-19.56,14.06-26.86-1.05-.41-1.88-1.28-2.59-2.24-1.64,2.11-3.1,4.37-4.33,6.75-.13.25-.53.08-.4-.17,1.26-2.46,2.76-4.78,4.46-6.96-.23-.33-.45-.66-.66-.98-1.41-2.16-3.43-3.11-6.01-2.85-.47.05-.94.14-1.41.25-1.08,2.4-1.93,4.89-2.53,7.45-.06.27-.5.21-.43-.06.58-2.49,1.4-4.92,2.44-7.26-1.91.54-3.75,1.48-5.49,2.33Z"/>
        <path class="cls-3" d="M134.73,25.32c-1.3,1.91-2.32,4.09-3.25,6.2-1.1,2.47-1.89,5.08-1.83,7.81.2,3.76,1.93,7.37,3.23,10.85,1.06,2.85,2.13,5.71,3.19,8.56.07-4.72.33-9.45.81-14.15.16-1.58.34-3.15.55-4.73.04-.31.51-.2.47.1-.72,5.51-1.16,11.06-1.31,16.62-.03,1.13-.04,2.26-.05,3.4.05.14.11.29.16.43.06-.03.11-.06.17-.08.12-.03.12-.07-.01-.14.21-.3.33-.77.48-1.1.64-1.47,1.27-2.94,1.91-4.41,1.27-2.94,2.54-5.88,3.81-8.83,1.14-2.64,2.28-5.27,3.42-7.91,1.04-2.42,2.16-4.82,2.93-7.34.72-2.35,1.21-4.91.63-7.35-.29-1.2-1.31-3.37-2.65-3.95.2,3-.49,6.05-1.98,8.66-.45.79-.97,1.54-1.56,2.24-.2.24-.55-.08-.36-.32,2-2.4,3.21-5.43,3.43-8.55.05-.72.03-1.45-.02-2.17-.46-.05-.95.08-1.45.52-.81.71-1.34,1.65-2.31,2.17-.92.49-1.96.53-2.97.54-1.16.01-2.25.06-3.26.7-.88.55-1.57,1.37-2.15,2.22Z"/>
        <path class="cls-3" d="M159.81,29.75c.09-.1.21-.19.37-.24.36-.1.67-.27.95-.48-2.71-2.02-5.92-3.36-9.27-3.86.05,1.75-.26,3.53-.73,5.2-.03.09-.06.19-.09.28,2.7-1.38,5.85-1.62,8.76-.9Z"/>
        <path class="cls-3" d="M131.17,50.23c-1.32-3.53-2.94-7.1-3.14-10.91-.07-2.84.73-5.54,1.83-8.12-.08-.02-.17-.04-.25-.09-2.46-1.5-5.32-1.73-8.14-1.73-1.99,0-4.09-.05-6.09.29,2.14,1.85,4.11,3.88,5.87,6.1.19.24-.21.5-.4.26-1.81-2.27-3.83-4.37-6.05-6.25,0,0,0,0,0,0-.64.13-1.26.31-1.86.54-1.16.46-2.28,1.19-3.06,2.18-.94,1.19-1.13,2.64-1.32,4.09-.02.17-.05.35-.08.52,2.72,1.36,5.31,2.98,7.72,4.83.24.19-.08.54-.32.36-2.34-1.8-4.86-3.36-7.49-4.69-.26,1.31-.72,2.58-1.63,3.48,10.85,3.9,20.33,11.11,26.95,20.56-2.32-4.12-4.9-8.09-7.72-11.88-.18-.25.22-.51.4-.26,2.88,3.86,5.5,7.9,7.85,12.09.01.03,0,.05,0,.07.37-.09.74-.18,1.1-.26-1.39-3.72-2.78-7.45-4.16-11.17Z"/>
        <path class="cls-3" d="M105.99,7.69c.71.56,1.29,1.49,1.89,2.4.86-1.05,1.73-2.1,2.59-3.15-1.13-1.16-2.54-1.92-4.05-2.23-.46.57-.83,1.21-1.04,1.91-.03.11-.19.16-.29.12-.12-.05-.15-.17-.12-.29.2-.67.56-1.28.98-1.84-2-.28-4.09.21-5.79,1.59-.04.03-.08.04-.13.07,2.09-.26,4.28.08,5.96,1.42Z"/>
        <path class="cls-3" d="M107.69,33.04c.98-2.3,3.18-3.79,5.5-4.51,0-.02.01-.04.01-.06-.09,0-.18.01-.29-.01-2.37-.59-4.74-.1-6.64,1.14.71.36,1.38.82,1.91,1.41.09.1.11.23.02.34-.08.09-.25.12-.34.02-.57-.63-1.27-1.11-2.03-1.47-1.37,1.02-2.43,2.46-2.98,4.18,1.41.67,2.82,1.33,4.22,2,.15-1.12.27-2.23.61-3.03Z"/>
        <path class="cls-3" d="M122.47,27.77c2.77.07,5.55.47,7.96,1.94.03.02.05.05.07.07,1.14-2.46,2.35-5.2,4.32-7.1.69-.66,1.49-1.2,2.39-1.53-2.17-.61-4.34-1.21-6.51-1.82-1.31,1.51-.85,3.84-.43,5.63.07.3-.38.45-.46.15-.45-1.92-.87-4.27.37-5.92-.07-.02-.14-.04-.22-.06-2.42-.68-4.9-1.47-7.41-.73-4.4,1.29-6.65,5.53-7.62,9.73,2.46-.45,5.07-.42,7.53-.36Z"/>
        <path class="cls-3" d="M65.96,74.2c.04.06.04.15-.02.19-.35.24-.64.54-.9.88.46.87,1.17,1.6,2.04,2.07.4-.61.8-1.21,1.2-1.82-.7-.22-1.38-.49-1.97-.96-.13-.11-.23-.24-.34-.36Z"/>
        <path class="cls-3" d="M191.05,52.38c1.83-1.12,3.65-2.25,5.48-3.36.55-.33,1.1-.65,1.67-.96.01-.07.02-.14.06-.22,1.11-2.3.59-5.05-.97-6.98.21.86.24,1.76.04,2.63-.04.19-.34.14-.3-.05.24-1.02.17-2.08-.17-3.06-.08-.08-.16-.15-.24-.22.04,3.31-2.52,6.53-4.6,8.85-1.8,2.01-3.84,3.78-5.9,5.52,1.86-1.12,3.71-2.25,5.54-3.43.16-.1.34.14.17.24-.73.47-1.46.94-2.2,1.4-1.62,1.02-3.26,2-4.91,2.97-.69.58-1.38,1.15-2.06,1.74,0,.03,0,.05,0,.08.8-.5,1.6-.98,2.4-1.47,2-1.23,4-2.45,6-3.68Z"/>
        <path class="cls-3" d="M200.21,47.07c.43-.18.87-.33,1.32-.46.37-.1.75-.18,1.13-.24-.57-1.7-1.48-3.25-2.69-4.57-.02.12-.05.23-.1.33.59,1.57.74,3.3.35,4.94Z"/>
        <path class="cls-3" d="M183.37,58.99c.12.03.23.05.35.08.42-.07.85-.13,1.27-.2,3.43-.59,6.82-1.35,10.17-2.29.18-.05.29.23.11.28-.96.27-1.91.52-2.88.76-2.62.65-5.27,1.17-7.93,1.61,1.61.35,3.22.7,4.82,1.05,2.32.5,4.69,1.23,7.08,1.04,1.9-.24,3.58-1.19,5.15-2.23,1.34-.89,3.13-1.89,3.86-3.39.75-1.54-.42-3.21.62-4.74.39-.58,1.09-1.07.9-1.73-.33.03-.66.05-.99.12-1.91.41-3.68,1.43-4.99,2.88-.13.14-.36-.05-.23-.19.38-.42.8-.81,1.25-1.16,1.39-1.07,3.07-1.73,4.81-1.93-.02-.03-.03-.06-.05-.09-.53-.7-1.62-.93-2.44-.97-1.9-.11-3.74.74-5.37,1.64-1.81,1-3.54,2.13-5.3,3.21-3.4,2.09-6.81,4.18-10.21,6.26Z"/>
        <path class="cls-3" d="M203.16,74.17c.06-.05.13-.05.19,0,.32.22.6.49.85.8.42-.95.49-2.01.27-3.02-.26.84-.7,1.6-1.31,2.23Z"/>
        <path class="cls-3" d="M203.16,74.39c-.06-.04-.06-.14-.02-.2-.14.14-.27.3-.43.43-.57.44-1.21.69-1.89.9.4.61.8,1.21,1.2,1.82.87-.47,1.58-1.2,2.04-2.07-.26-.33-.55-.64-.9-.88Z"/>
        <path class="cls-3" d="M202.59,60.39c.96,1.32,1.47,2.81,1.75,4.43.25,1.45.5,2.97.5,4.47,2.26-.96,4.37-2.63,4.74-5.2.22-1.56-.5-3-1.11-4.38,0,0,0-.01,0-.02-.92.7-2.26.66-3.39.56-.19-.02-.14-.31.05-.29,1.04.09,2.37.17,3.22-.54-.48-1.1-.97-2.2-1.45-3.3-.34.81-.89,1.53-1.56,2.14-.83.75-1.76,1.47-2.74,2.13Z"/>
        <path class="cls-3" d="M86.74,60.87s0-.08-.01-.12c0-.11-.02-.21-.03-.32-2.28.5-4.57.99-6.85,1.49-2.33.51-4.72,1.2-7.13,1.01-1.76-.22-3.33-.88-4.84-1.76,0,0,0,0,0,0-1.05,1.29-1.41,2.94-1.66,4.54-.18,1.16-.37,2.41-.37,3.63,1.25-1.06,2.57-2.02,3.99-2.84.17-.1.29.17.13.27-1.46.85-2.83,1.85-4.12,2.96.02.51.08,1.01.21,1.49.19.71.53,1.42,1.08,1.93.73.68,1.7.82,2.61,1.12,1.04-1.46,2.18-2.84,3.46-4.09.14-.13.33.1.19.23-1.25,1.22-2.35,2.56-3.37,3.97.66.24,1.26.59,1.73,1.06,2.95-5.42,7.29-10.01,12.55-13.23-1.83.8-3.64,1.65-5.39,2.6-.17.09-.3-.18-.13-.27,2.56-1.4,5.22-2.62,7.94-3.68Z"/>
        <path class="cls-3" d="M180.48,59.68s.03.05.03.06c.03.05.06.1.09.15.01.02.02.03.04.05.05.06.11.11.16.16.06-.68.13-1.36.19-2.04-.03.02-.05.03-.08.05-.01,0,0,0-.02,0,0,0,0,0,0,0-.09.08-.17.16-.25.25-.01.01,0,0-.02.01,0,0,0,0,0,0-.04.06-.08.11-.11.17-.02.04-.06.09-.07.14,0,0,0,.01,0,.02.2.27.24.66.06.95Z"/>
        <path class="cls-3" d="M190.16,64.82c-1.75-.96-3.56-1.8-5.39-2.6,5.25,3.22,9.6,7.81,12.55,13.23.47-.47,1.07-.82,1.73-1.06-1.01-1.41-2.12-2.76-3.37-3.97-.14-.13.05-.36.19-.23,1.28,1.25,2.42,2.63,3.46,4.09.91-.29,1.89-.43,2.61-1.12.54-.52.88-1.21,1.08-1.93.13-.48.19-.98.21-1.49-1.28-1.1-2.65-2.1-4.12-2.96-.17-.1-.04-.37.13-.27,1.41.83,2.74,1.79,3.99,2.84,0-1.22-.19-2.48-.37-3.63-.24-1.58-.61-3.21-1.62-4.49-1.54.86-3.2,1.49-4.87,1.7-2.41.19-4.8-.5-7.13-1.01-2.28-.5-4.57-.99-6.85-1.49-.01.15-.03.29-.04.44,2.72,1.06,5.37,2.29,7.94,3.68.17.09.04.36-.13.27Z"/>
        <path class="cls-3" d="M191.33,12.26c-1.05.19-2.02.69-2.92,1.24-3.56,2.19-7.45,5.11-9.28,8.96-1.37,3.11-1.45,6.72-1.82,10.05-.31,2.76-.62,5.51-.93,8.27,2-3.79,4.12-7.51,6.43-11.12.78-1.22,1.58-2.43,2.4-3.63.16-.23.5.05.34.28-2.86,4.2-5.51,8.54-7.94,13.01-.46.86-.91,1.72-1.36,2.59-.02.16-.04.33-.06.49,4.42-3.68,8.84-7.35,13.26-11.03,3.47-2.88,7.32-5.61,10.26-9.06,1.28-1.5,2.38-3.28,2.7-5.26.16-1.01.08-2.71-.66-3.58-1.08,2.48-2.86,4.66-5.12,6.15-.69.46-1.43.86-2.2,1.19-.26.11-.42-.3-.16-.41,2.62-1.13,4.86-3.1,6.32-5.55.32-.54.59-1.11.84-1.69-.32-.22-.73-.32-1.25-.22-.97.19-1.78.79-2.8.84-.97.04-1.85-.35-2.7-.76-1.09-.54-2.1-.98-3.34-.76Z"/>
        <path class="cls-3" d="M204.67,29.46c1.63.16,3.18.81,4.44,1.82-1.89-3.65-6.11-6.03-10.25-5.5-.1.01-.18,0-.26-.02-1.19,1.1-2.44,2.13-3.69,3.16-2.42,2.01-4.83,4.02-7.25,6.03-2.36,1.97-4.73,3.93-7.09,5.9-.67.56-1.34,1.11-2,1.67-.32.26-.64.58-.97.87.32.08.63.15.95.23.56-.33,1.12-.66,1.67-1,2.64-2.32,5.32-4.61,8.04-6.84.98-.8,1.97-1.6,2.97-2.39.22-.18.48.18.26.35-3.08,2.45-6.11,4.98-9.09,7.55,4.19-2.56,8.39-5.11,12.94-6.99,4.26-1.76,9.97-3.69,14.38-1.57-.04-.12-.08-.25-.12-.37-1.31-1.38-3.09-2.27-4.99-2.46-.28-.03-.21-.46.07-.43Z"/>
        <path class="cls-3" d="M200.27,24.09c2.74.02,5.35,1.12,7.4,2.89.13-.05.27-.07.44-.04.25.05.52.06.77.03-1.37-2.71-3.36-5.05-5.83-6.82-.65,1.33-1.53,2.55-2.51,3.65-.09.1-.18.19-.27.28Z"/>
        <path class="cls-3" d="M173.37,44.08c.04.17.09.34.15.51.01.03.05.12.06.13.04.08.09.17.14.25.04.07.09.14.14.21.01.02.08.1.09.12.11.12.23.24.35.34.44-.22,1.01.03,1.17.45,0,0,0,0,.01,0,.11,0,.22,0,.32,0,.03,0,.04,0,.05,0,0,0,.02,0,.06-.02.43-.1.57-.14.94-.37.28-.17.5-.4.69-.66-1.39-.33-2.78-.67-4.18-1,0,0,0,.02.01.05Z"/>
        <path class="cls-3" d="M172.21,29.32c.75,4.33,1.22,8.71,1.4,13.1.31.07.62.15.93.22.41-3.64.82-7.29,1.23-10.93.38-3.4.56-6.91,1.95-10.08,1.1-2.31,2.86-4.16,4.8-5.79-.06-.05-.11-.1-.16-.17-1.28-2.08-3.33-3.4-5.45-4.51-1.73-.9-3.54-1.87-5.43-2.47.96,2.36,1.71,4.8,2.22,7.3.06.28-.38.32-.43.05-.52-2.56-1.3-5.06-2.3-7.48-.38-.1-.75-.22-1.14-.29-1.29-.22-2.7-.16-3.92.37-1.17.51-1.92,1.47-2.62,2.5-.16.24-.34.48-.52.72,1.64,2.22,3.07,4.58,4.26,7.07.12.25-.29.41-.41.16-1.16-2.42-2.55-4.71-4.13-6.87-.73.93-1.59,1.78-2.66,2.16,7.05,7.5,11.75,17.07,13.29,27.26-.2-4.12-.65-8.22-1.36-12.28-.05-.28.39-.32.43-.05Z"/>
        <path class="cls-1" d="M88.66,58.71c-.03-.06-.06-.11-.09-.17-.03-.05-.06-.1-.1-.15,0,0,0,0,0,0,0,0,0,0-.02-.01-.08-.09-.17-.17-.26-.25-.01,0-.03-.02-.04-.03-.02-.01-.04-.02-.05-.03.06.69.13,1.37.19,2.06.06-.05.11-.11.15-.16.02-.02.03-.04.05-.07.03-.05.06-.1.09-.15,0-.01.02-.04.03-.06-.18-.29-.15-.68.06-.95,0,0,0-.01,0-.02Z"/>
        <path class="cls-3" d="M163.94,7.97c1.71-1.32,3.94-1.6,6.03-1.29-.03-.02-.06-.03-.09-.05-1.66-1.43-3.75-1.99-5.76-1.77.41.57.74,1.19.92,1.87.03.11,0,.24-.12.28-.1.04-.25,0-.28-.12-.19-.71-.54-1.36-.99-1.94-1.52.26-2.96.98-4.12,2.12.83,1.07,1.67,2.15,2.5,3.22.62-.88,1.21-1.77,1.91-2.31Z"/>
        <path class="cls-3" d="M183.75,14.84c1.96-1.58,4.11-3.28,6.51-3.98.75-.22,1.54-.3,2.32-.23-1.48-1.36-2.96-2.71-4.45-4.07-1.64.72-2.22,2.78-2.6,4.38-.07.27-.5.21-.43-.07.42-1.73,1.03-3.79,2.68-4.64-.04-.03-.07-.07-.11-.1-1.62-1.48-3.23-3.09-5.44-3.6-4.11-.95-7.87,1.59-10.41,4.62,2.3.7,4.54,1.86,6.61,3.01,2.11,1.17,4.04,2.62,5.32,4.69Z"/>
      </g>
    </g>
  </g>
</svg>